<mxfile host="Electron" modified="2024-05-17T12:02:17.708Z" agent="Mozilla/5.0 (Windows NT 10.0; Win64; x64) AppleWebKit/537.36 (KHTML, like Gecko) draw.io/24.1.0 Chrome/120.0.6099.109 Electron/28.1.0 Safari/537.36" etag="a8NHfNHMoLhqK-OzYEvT" version="24.1.0" type="device">
  <diagram name="第 1 页" id="0rRo92D8n8B3CpU9M9aK">
    <mxGraphModel dx="1562" dy="917" grid="1" gridSize="5" guides="1" tooltips="1" connect="1" arrows="1" fold="1" page="1" pageScale="1" pageWidth="827" pageHeight="1169" math="0" shadow="0">
      <root>
        <mxCell id="0" />
        <mxCell id="1" parent="0" />
        <mxCell id="tDk0SCn-6yNDbkdqEUjn-4" style="edgeStyle=orthogonalEdgeStyle;rounded=1;orthogonalLoop=1;jettySize=auto;html=1;exitX=0.5;exitY=1;exitDx=0;exitDy=0;entryX=0.5;entryY=0;entryDx=0;entryDy=0;" edge="1" parent="1" source="tDk0SCn-6yNDbkdqEUjn-1" target="tDk0SCn-6yNDbkdqEUjn-3">
          <mxGeometry relative="1" as="geometry" />
        </mxCell>
        <mxCell id="tDk0SCn-6yNDbkdqEUjn-1" value="被乘数（A）" style="text;html=1;align=center;verticalAlign=middle;whiteSpace=wrap;rounded=1;" vertex="1" parent="1">
          <mxGeometry x="230" y="250" width="60" height="30" as="geometry" />
        </mxCell>
        <mxCell id="tDk0SCn-6yNDbkdqEUjn-7" style="edgeStyle=orthogonalEdgeStyle;rounded=1;orthogonalLoop=1;jettySize=auto;html=1;exitX=0.5;exitY=1;exitDx=0;exitDy=0;entryX=0.5;entryY=0;entryDx=0;entryDy=0;" edge="1" parent="1" source="tDk0SCn-6yNDbkdqEUjn-2" target="tDk0SCn-6yNDbkdqEUjn-6">
          <mxGeometry relative="1" as="geometry" />
        </mxCell>
        <mxCell id="tDk0SCn-6yNDbkdqEUjn-2" value="乘数&lt;div&gt;（B）&lt;/div&gt;" style="text;html=1;align=center;verticalAlign=middle;whiteSpace=wrap;rounded=1;" vertex="1" parent="1">
          <mxGeometry x="554" y="250" width="60" height="30" as="geometry" />
        </mxCell>
        <mxCell id="tDk0SCn-6yNDbkdqEUjn-20" style="edgeStyle=orthogonalEdgeStyle;rounded=1;orthogonalLoop=1;jettySize=auto;html=1;exitX=0.5;exitY=1;exitDx=0;exitDy=0;entryX=0.25;entryY=0;entryDx=0;entryDy=0;" edge="1" parent="1" source="tDk0SCn-6yNDbkdqEUjn-3" target="tDk0SCn-6yNDbkdqEUjn-13">
          <mxGeometry relative="1" as="geometry">
            <Array as="points">
              <mxPoint x="260" y="410" />
              <mxPoint x="182" y="410" />
            </Array>
          </mxGeometry>
        </mxCell>
        <mxCell id="tDk0SCn-6yNDbkdqEUjn-21" style="edgeStyle=orthogonalEdgeStyle;rounded=1;orthogonalLoop=1;jettySize=auto;html=1;exitX=0.5;exitY=1;exitDx=0;exitDy=0;entryX=0.25;entryY=0;entryDx=0;entryDy=0;" edge="1" parent="1" source="tDk0SCn-6yNDbkdqEUjn-3" target="tDk0SCn-6yNDbkdqEUjn-18">
          <mxGeometry relative="1" as="geometry">
            <Array as="points">
              <mxPoint x="260" y="410" />
              <mxPoint x="384" y="410" />
            </Array>
          </mxGeometry>
        </mxCell>
        <mxCell id="tDk0SCn-6yNDbkdqEUjn-29" style="edgeStyle=orthogonalEdgeStyle;rounded=1;orthogonalLoop=1;jettySize=auto;html=1;exitX=0.5;exitY=1;exitDx=0;exitDy=0;entryX=0.25;entryY=0;entryDx=0;entryDy=0;" edge="1" parent="1" source="tDk0SCn-6yNDbkdqEUjn-3" target="tDk0SCn-6yNDbkdqEUjn-19">
          <mxGeometry relative="1" as="geometry">
            <Array as="points">
              <mxPoint x="260" y="410" />
              <mxPoint x="584" y="410" />
            </Array>
          </mxGeometry>
        </mxCell>
        <mxCell id="tDk0SCn-6yNDbkdqEUjn-3" value="ext 68" style="ellipse;whiteSpace=wrap;html=1;aspect=fixed;rounded=1;fillColor=#d5e8d4;strokeColor=#82b366;" vertex="1" parent="1">
          <mxGeometry x="235" y="305" width="50" height="50" as="geometry" />
        </mxCell>
        <mxCell id="tDk0SCn-6yNDbkdqEUjn-26" style="edgeStyle=orthogonalEdgeStyle;rounded=1;orthogonalLoop=1;jettySize=auto;html=1;exitX=0.5;exitY=1;exitDx=0;exitDy=0;entryX=0.75;entryY=0;entryDx=0;entryDy=0;" edge="1" parent="1" source="tDk0SCn-6yNDbkdqEUjn-6" target="tDk0SCn-6yNDbkdqEUjn-18">
          <mxGeometry relative="1" as="geometry">
            <Array as="points">
              <mxPoint x="584" y="370" />
              <mxPoint x="444" y="370" />
            </Array>
          </mxGeometry>
        </mxCell>
        <mxCell id="tDk0SCn-6yNDbkdqEUjn-28" style="edgeStyle=orthogonalEdgeStyle;rounded=1;orthogonalLoop=1;jettySize=auto;html=1;exitX=0.5;exitY=1;exitDx=0;exitDy=0;entryX=0.75;entryY=0;entryDx=0;entryDy=0;" edge="1" parent="1" source="tDk0SCn-6yNDbkdqEUjn-6" target="tDk0SCn-6yNDbkdqEUjn-13">
          <mxGeometry relative="1" as="geometry">
            <Array as="points">
              <mxPoint x="584" y="370" />
              <mxPoint x="242" y="370" />
            </Array>
          </mxGeometry>
        </mxCell>
        <mxCell id="tDk0SCn-6yNDbkdqEUjn-31" style="edgeStyle=orthogonalEdgeStyle;rounded=1;orthogonalLoop=1;jettySize=auto;html=1;exitX=0.5;exitY=1;exitDx=0;exitDy=0;entryX=0.75;entryY=0;entryDx=0;entryDy=0;" edge="1" parent="1" source="tDk0SCn-6yNDbkdqEUjn-6" target="tDk0SCn-6yNDbkdqEUjn-19">
          <mxGeometry relative="1" as="geometry">
            <Array as="points">
              <mxPoint x="584" y="370" />
              <mxPoint x="645" y="370" />
            </Array>
          </mxGeometry>
        </mxCell>
        <mxCell id="tDk0SCn-6yNDbkdqEUjn-6" value="ext 34" style="ellipse;whiteSpace=wrap;html=1;aspect=fixed;rounded=1;fillColor=#d5e8d4;strokeColor=#82b366;" vertex="1" parent="1">
          <mxGeometry x="559" y="305" width="50" height="50" as="geometry" />
        </mxCell>
        <mxCell id="tDk0SCn-6yNDbkdqEUjn-35" style="edgeStyle=orthogonalEdgeStyle;rounded=1;orthogonalLoop=1;jettySize=auto;html=1;exitX=0.25;exitY=1;exitDx=0;exitDy=0;" edge="1" parent="1" source="tDk0SCn-6yNDbkdqEUjn-13">
          <mxGeometry relative="1" as="geometry">
            <mxPoint x="183" y="620" as="targetPoint" />
          </mxGeometry>
        </mxCell>
        <mxCell id="tDk0SCn-6yNDbkdqEUjn-36" style="edgeStyle=orthogonalEdgeStyle;rounded=1;orthogonalLoop=1;jettySize=auto;html=1;exitX=0.75;exitY=1;exitDx=0;exitDy=0;" edge="1" parent="1" source="tDk0SCn-6yNDbkdqEUjn-13">
          <mxGeometry relative="1" as="geometry">
            <mxPoint x="243" y="620" as="targetPoint" />
          </mxGeometry>
        </mxCell>
        <mxCell id="tDk0SCn-6yNDbkdqEUjn-13" value="Booth" style="rounded=1;whiteSpace=wrap;html=1;fillColor=#d5e8d4;strokeColor=#82b366;" vertex="1" parent="1">
          <mxGeometry x="153" y="510" width="120" height="60" as="geometry" />
        </mxCell>
        <mxCell id="tDk0SCn-6yNDbkdqEUjn-39" style="edgeStyle=orthogonalEdgeStyle;rounded=1;orthogonalLoop=1;jettySize=auto;html=1;exitX=0.25;exitY=1;exitDx=0;exitDy=0;" edge="1" parent="1" source="tDk0SCn-6yNDbkdqEUjn-18">
          <mxGeometry relative="1" as="geometry">
            <mxPoint x="383.68965517241395" y="620" as="targetPoint" />
          </mxGeometry>
        </mxCell>
        <mxCell id="tDk0SCn-6yNDbkdqEUjn-40" style="edgeStyle=orthogonalEdgeStyle;rounded=1;orthogonalLoop=1;jettySize=auto;html=1;exitX=0.75;exitY=1;exitDx=0;exitDy=0;" edge="1" parent="1" source="tDk0SCn-6yNDbkdqEUjn-18">
          <mxGeometry relative="1" as="geometry">
            <mxPoint x="443.68965517241395" y="620" as="targetPoint" />
          </mxGeometry>
        </mxCell>
        <mxCell id="tDk0SCn-6yNDbkdqEUjn-18" value="Booth" style="rounded=1;whiteSpace=wrap;html=1;fillColor=#d5e8d4;strokeColor=#82b366;" vertex="1" parent="1">
          <mxGeometry x="354" y="510" width="120" height="60" as="geometry" />
        </mxCell>
        <mxCell id="tDk0SCn-6yNDbkdqEUjn-41" style="edgeStyle=orthogonalEdgeStyle;rounded=1;orthogonalLoop=1;jettySize=auto;html=1;exitX=0.25;exitY=1;exitDx=0;exitDy=0;" edge="1" parent="1" source="tDk0SCn-6yNDbkdqEUjn-19">
          <mxGeometry relative="1" as="geometry">
            <mxPoint x="585.0689655172414" y="620" as="targetPoint" />
          </mxGeometry>
        </mxCell>
        <mxCell id="tDk0SCn-6yNDbkdqEUjn-42" style="edgeStyle=orthogonalEdgeStyle;rounded=1;orthogonalLoop=1;jettySize=auto;html=1;exitX=0.75;exitY=1;exitDx=0;exitDy=0;" edge="1" parent="1" source="tDk0SCn-6yNDbkdqEUjn-19">
          <mxGeometry relative="1" as="geometry">
            <mxPoint x="645.0689655172414" y="620" as="targetPoint" />
          </mxGeometry>
        </mxCell>
        <mxCell id="tDk0SCn-6yNDbkdqEUjn-19" value="Booth" style="rounded=1;whiteSpace=wrap;html=1;fillColor=#d5e8d4;strokeColor=#82b366;" vertex="1" parent="1">
          <mxGeometry x="555" y="510" width="120" height="60" as="geometry" />
        </mxCell>
        <mxCell id="tDk0SCn-6yNDbkdqEUjn-23" value=". . ." style="text;html=1;align=center;verticalAlign=middle;whiteSpace=wrap;rounded=1;fontStyle=1;fontSize=24;spacing=2;spacingBottom=8;" vertex="1" parent="1">
          <mxGeometry x="285" y="525" width="60" height="30" as="geometry" />
        </mxCell>
        <mxCell id="tDk0SCn-6yNDbkdqEUjn-30" value=". . ." style="text;html=1;align=center;verticalAlign=middle;whiteSpace=wrap;rounded=1;fontStyle=1;fontSize=24;spacing=2;spacingBottom=8;" vertex="1" parent="1">
          <mxGeometry x="488" y="525" width="60" height="30" as="geometry" />
        </mxCell>
        <mxCell id="tDk0SCn-6yNDbkdqEUjn-32" value="68Bit" style="text;html=1;align=center;verticalAlign=middle;whiteSpace=wrap;rounded=1;rotation=90;" vertex="1" parent="1">
          <mxGeometry x="345" y="450" width="55" height="30" as="geometry" />
        </mxCell>
        <mxCell id="tDk0SCn-6yNDbkdqEUjn-33" value="3Bit&lt;div&gt;B[i+1], B[i],B[i-1]&lt;/div&gt;" style="text;html=1;align=center;verticalAlign=middle;whiteSpace=wrap;rounded=1;rotation=90;" vertex="1" parent="1">
          <mxGeometry x="388" y="446" width="160" height="30" as="geometry" />
        </mxCell>
        <mxCell id="tDk0SCn-6yNDbkdqEUjn-87" style="edgeStyle=orthogonalEdgeStyle;rounded=1;orthogonalLoop=1;jettySize=auto;html=1;exitX=0;exitY=0.5;exitDx=0;exitDy=0;entryX=0;entryY=0.5;entryDx=0;entryDy=0;" edge="1" parent="1" source="tDk0SCn-6yNDbkdqEUjn-37" target="tDk0SCn-6yNDbkdqEUjn-46">
          <mxGeometry relative="1" as="geometry" />
        </mxCell>
        <mxCell id="tDk0SCn-6yNDbkdqEUjn-88" style="edgeStyle=orthogonalEdgeStyle;rounded=1;orthogonalLoop=1;jettySize=auto;html=1;exitX=0;exitY=0.5;exitDx=0;exitDy=0;entryX=1;entryY=0.5;entryDx=0;entryDy=0;" edge="1" parent="1" source="tDk0SCn-6yNDbkdqEUjn-37" target="tDk0SCn-6yNDbkdqEUjn-83">
          <mxGeometry relative="1" as="geometry">
            <Array as="points">
              <mxPoint x="133" y="650" />
              <mxPoint x="133" y="870" />
            </Array>
          </mxGeometry>
        </mxCell>
        <mxCell id="tDk0SCn-6yNDbkdqEUjn-37" value="&lt;div style=&quot;text-align: left;&quot;&gt;&lt;font size=&quot;1&quot; face=&quot;Google Sans, arial, sans-serif&quot; color=&quot;#040c28&quot;&gt;&lt;span style=&quot;font-size: 12px;&quot;&gt;Transpose（17*68 → 68*17）&lt;/span&gt;&lt;/font&gt;&lt;/div&gt;" style="rounded=1;whiteSpace=wrap;html=1;fillColor=#b0e3e6;strokeColor=#0e8088;labelBackgroundColor=none;" vertex="1" parent="1">
          <mxGeometry x="153" y="620" width="522" height="60" as="geometry" />
        </mxCell>
        <mxCell id="tDk0SCn-6yNDbkdqEUjn-43" value="Product&lt;div&gt;（68）&lt;/div&gt;" style="text;html=1;align=center;verticalAlign=middle;whiteSpace=wrap;rounded=1;rotation=90;" vertex="1" parent="1">
          <mxGeometry x="340" y="580" width="60" height="30" as="geometry" />
        </mxCell>
        <mxCell id="tDk0SCn-6yNDbkdqEUjn-44" value="Carry&lt;div&gt;（1）&lt;/div&gt;" style="text;html=1;align=center;verticalAlign=middle;whiteSpace=wrap;rounded=1;rotation=90;" vertex="1" parent="1">
          <mxGeometry x="430" y="580" width="60" height="30" as="geometry" />
        </mxCell>
        <mxCell id="tDk0SCn-6yNDbkdqEUjn-45" value="共17个" style="text;html=1;align=center;verticalAlign=middle;whiteSpace=wrap;rounded=1;" vertex="1" parent="1">
          <mxGeometry x="685" y="525" width="60" height="30" as="geometry" />
        </mxCell>
        <mxCell id="tDk0SCn-6yNDbkdqEUjn-60" value="17" style="edgeStyle=orthogonalEdgeStyle;rounded=1;orthogonalLoop=1;jettySize=auto;html=1;exitX=0.5;exitY=0;exitDx=0;exitDy=0;startArrow=classic;startFill=1;endArrow=none;endFill=0;" edge="1" parent="1" source="tDk0SCn-6yNDbkdqEUjn-46">
          <mxGeometry relative="1" as="geometry">
            <mxPoint x="212.84482758620697" y="680" as="targetPoint" />
          </mxGeometry>
        </mxCell>
        <mxCell id="tDk0SCn-6yNDbkdqEUjn-68" value="14" style="edgeStyle=orthogonalEdgeStyle;rounded=1;orthogonalLoop=1;jettySize=auto;html=1;exitX=1;exitY=0.5;exitDx=0;exitDy=0;entryX=0;entryY=0.5;entryDx=0;entryDy=0;fillColor=#dae8fc;strokeColor=default;" edge="1" parent="1" source="tDk0SCn-6yNDbkdqEUjn-46" target="tDk0SCn-6yNDbkdqEUjn-57">
          <mxGeometry relative="1" as="geometry" />
        </mxCell>
        <mxCell id="tDk0SCn-6yNDbkdqEUjn-75" value="S" style="edgeStyle=orthogonalEdgeStyle;rounded=1;orthogonalLoop=1;jettySize=auto;html=1;exitX=0.25;exitY=1;exitDx=0;exitDy=0;" edge="1" parent="1" source="tDk0SCn-6yNDbkdqEUjn-46">
          <mxGeometry relative="1" as="geometry">
            <mxPoint x="190.58620689655186" y="840" as="targetPoint" />
          </mxGeometry>
        </mxCell>
        <mxCell id="tDk0SCn-6yNDbkdqEUjn-76" value="C" style="edgeStyle=orthogonalEdgeStyle;rounded=1;orthogonalLoop=1;jettySize=auto;html=1;exitX=0.75;exitY=1;exitDx=0;exitDy=0;" edge="1" parent="1" source="tDk0SCn-6yNDbkdqEUjn-46">
          <mxGeometry relative="1" as="geometry">
            <mxPoint x="234.0344827586207" y="840" as="targetPoint" />
          </mxGeometry>
        </mxCell>
        <mxCell id="tDk0SCn-6yNDbkdqEUjn-46" value="Wallace&lt;div&gt;Tree&lt;/div&gt;&lt;div&gt;（5-4-2-2-1-1）&lt;/div&gt;" style="rounded=1;whiteSpace=wrap;html=1;fillColor=#b0e3e6;strokeColor=#0e8088;" vertex="1" parent="1">
          <mxGeometry x="169" y="735" width="87" height="60" as="geometry" />
        </mxCell>
        <mxCell id="tDk0SCn-6yNDbkdqEUjn-61" value="17" style="edgeStyle=orthogonalEdgeStyle;rounded=1;orthogonalLoop=1;jettySize=auto;html=1;exitX=0.5;exitY=0;exitDx=0;exitDy=0;startArrow=classic;startFill=1;endArrow=none;endFill=0;" edge="1" parent="1" source="tDk0SCn-6yNDbkdqEUjn-57">
          <mxGeometry relative="1" as="geometry">
            <mxPoint x="332.5" y="680" as="targetPoint" />
          </mxGeometry>
        </mxCell>
        <mxCell id="tDk0SCn-6yNDbkdqEUjn-69" value="14" style="edgeStyle=orthogonalEdgeStyle;rounded=1;orthogonalLoop=1;jettySize=auto;html=1;exitX=1;exitY=0.5;exitDx=0;exitDy=0;entryX=0;entryY=0.5;entryDx=0;entryDy=0;fillColor=#dae8fc;strokeColor=default;" edge="1" parent="1" source="tDk0SCn-6yNDbkdqEUjn-57" target="tDk0SCn-6yNDbkdqEUjn-58">
          <mxGeometry relative="1" as="geometry" />
        </mxCell>
        <mxCell id="tDk0SCn-6yNDbkdqEUjn-77" value="S" style="edgeStyle=orthogonalEdgeStyle;rounded=1;orthogonalLoop=1;jettySize=auto;html=1;exitX=0.25;exitY=1;exitDx=0;exitDy=0;" edge="1" parent="1" source="tDk0SCn-6yNDbkdqEUjn-57">
          <mxGeometry relative="1" as="geometry">
            <mxPoint x="311.2758620689656" y="840" as="targetPoint" />
          </mxGeometry>
        </mxCell>
        <mxCell id="tDk0SCn-6yNDbkdqEUjn-78" value="C" style="edgeStyle=orthogonalEdgeStyle;rounded=1;orthogonalLoop=1;jettySize=auto;html=1;exitX=0.75;exitY=1;exitDx=0;exitDy=0;" edge="1" parent="1" source="tDk0SCn-6yNDbkdqEUjn-57">
          <mxGeometry relative="1" as="geometry">
            <mxPoint x="354.7241379310344" y="840" as="targetPoint" />
          </mxGeometry>
        </mxCell>
        <mxCell id="tDk0SCn-6yNDbkdqEUjn-57" value="Wallace&lt;div&gt;Tree&lt;/div&gt;&lt;div&gt;（5-4-2-2-1-1）&lt;/div&gt;" style="rounded=1;whiteSpace=wrap;html=1;fillColor=#b0e3e6;strokeColor=#0e8088;" vertex="1" parent="1">
          <mxGeometry x="289.5" y="735" width="87" height="60" as="geometry" />
        </mxCell>
        <mxCell id="tDk0SCn-6yNDbkdqEUjn-62" value="17" style="edgeStyle=orthogonalEdgeStyle;rounded=1;orthogonalLoop=1;jettySize=auto;html=1;exitX=0.5;exitY=0;exitDx=0;exitDy=0;startArrow=classic;startFill=1;endArrow=none;endFill=0;" edge="1" parent="1" source="tDk0SCn-6yNDbkdqEUjn-58">
          <mxGeometry relative="1" as="geometry">
            <mxPoint x="452.844827586207" y="680" as="targetPoint" />
          </mxGeometry>
        </mxCell>
        <mxCell id="tDk0SCn-6yNDbkdqEUjn-70" style="edgeStyle=orthogonalEdgeStyle;rounded=1;orthogonalLoop=1;jettySize=auto;html=1;exitX=1;exitY=0.5;exitDx=0;exitDy=0;fillColor=#dae8fc;strokeColor=default;" edge="1" parent="1" source="tDk0SCn-6yNDbkdqEUjn-58">
          <mxGeometry relative="1" as="geometry">
            <mxPoint x="520" y="765.2413793103449" as="targetPoint" />
          </mxGeometry>
        </mxCell>
        <mxCell id="tDk0SCn-6yNDbkdqEUjn-79" value="S" style="edgeStyle=orthogonalEdgeStyle;rounded=1;orthogonalLoop=1;jettySize=auto;html=1;exitX=0.25;exitY=1;exitDx=0;exitDy=0;" edge="1" parent="1" source="tDk0SCn-6yNDbkdqEUjn-58">
          <mxGeometry relative="1" as="geometry">
            <mxPoint x="431.2758620689656" y="840" as="targetPoint" />
          </mxGeometry>
        </mxCell>
        <mxCell id="tDk0SCn-6yNDbkdqEUjn-80" value="C" style="edgeStyle=orthogonalEdgeStyle;rounded=1;orthogonalLoop=1;jettySize=auto;html=1;exitX=0.75;exitY=1;exitDx=0;exitDy=0;" edge="1" parent="1" source="tDk0SCn-6yNDbkdqEUjn-58">
          <mxGeometry relative="1" as="geometry">
            <mxPoint x="474.7241379310344" y="840" as="targetPoint" />
          </mxGeometry>
        </mxCell>
        <mxCell id="tDk0SCn-6yNDbkdqEUjn-58" value="Wallace&lt;div&gt;Tree&lt;/div&gt;&lt;div&gt;（5-4-2-2-1-1）&lt;/div&gt;" style="rounded=1;whiteSpace=wrap;html=1;fillColor=#b0e3e6;strokeColor=#0e8088;" vertex="1" parent="1">
          <mxGeometry x="409.5" y="735" width="87" height="60" as="geometry" />
        </mxCell>
        <mxCell id="tDk0SCn-6yNDbkdqEUjn-63" value="17" style="edgeStyle=orthogonalEdgeStyle;rounded=1;orthogonalLoop=1;jettySize=auto;html=1;exitX=0.5;exitY=0;exitDx=0;exitDy=0;startArrow=classic;startFill=1;endArrow=none;endFill=0;" edge="1" parent="1" source="tDk0SCn-6yNDbkdqEUjn-59">
          <mxGeometry relative="1" as="geometry">
            <mxPoint x="614.2241379310346" y="680" as="targetPoint" />
          </mxGeometry>
        </mxCell>
        <mxCell id="tDk0SCn-6yNDbkdqEUjn-71" style="edgeStyle=orthogonalEdgeStyle;rounded=1;orthogonalLoop=1;jettySize=auto;html=1;exitX=0;exitY=0.5;exitDx=0;exitDy=0;endArrow=none;endFill=0;startArrow=classic;startFill=1;fillColor=#dae8fc;strokeColor=default;" edge="1" parent="1" source="tDk0SCn-6yNDbkdqEUjn-59">
          <mxGeometry relative="1" as="geometry">
            <mxPoint x="545" y="765.2413793103449" as="targetPoint" />
          </mxGeometry>
        </mxCell>
        <mxCell id="tDk0SCn-6yNDbkdqEUjn-81" value="S" style="edgeStyle=orthogonalEdgeStyle;rounded=1;orthogonalLoop=1;jettySize=auto;html=1;exitX=0.25;exitY=1;exitDx=0;exitDy=0;" edge="1" parent="1" source="tDk0SCn-6yNDbkdqEUjn-59">
          <mxGeometry relative="1" as="geometry">
            <mxPoint x="592.6551724137933" y="840" as="targetPoint" />
          </mxGeometry>
        </mxCell>
        <mxCell id="tDk0SCn-6yNDbkdqEUjn-82" value="C" style="edgeStyle=orthogonalEdgeStyle;rounded=1;orthogonalLoop=1;jettySize=auto;html=1;exitX=0.75;exitY=1;exitDx=0;exitDy=0;" edge="1" parent="1" source="tDk0SCn-6yNDbkdqEUjn-59">
          <mxGeometry relative="1" as="geometry">
            <mxPoint x="636.1034482758621" y="840" as="targetPoint" />
          </mxGeometry>
        </mxCell>
        <mxCell id="tDk0SCn-6yNDbkdqEUjn-59" value="Wallace&lt;div&gt;Tree&lt;/div&gt;&lt;div&gt;（5-4-2-2-1-1）&lt;/div&gt;" style="rounded=1;whiteSpace=wrap;html=1;fillColor=#b0e3e6;strokeColor=#0e8088;" vertex="1" parent="1">
          <mxGeometry x="571" y="735" width="87" height="60" as="geometry" />
        </mxCell>
        <mxCell id="tDk0SCn-6yNDbkdqEUjn-73" value="..." style="text;html=1;align=center;verticalAlign=middle;whiteSpace=wrap;rounded=1;fontSize=20;fontStyle=1;fillColor=none;strokeColor=none;" vertex="1" parent="1">
          <mxGeometry x="502" y="745" width="60" height="30" as="geometry" />
        </mxCell>
        <mxCell id="tDk0SCn-6yNDbkdqEUjn-74" value="共68个" style="text;html=1;align=center;verticalAlign=middle;whiteSpace=wrap;rounded=1;" vertex="1" parent="1">
          <mxGeometry x="685" y="750" width="60" height="30" as="geometry" />
        </mxCell>
        <mxCell id="tDk0SCn-6yNDbkdqEUjn-85" style="edgeStyle=orthogonalEdgeStyle;rounded=1;orthogonalLoop=1;jettySize=auto;html=1;exitX=0.5;exitY=0;exitDx=0;exitDy=0;" edge="1" parent="1" source="tDk0SCn-6yNDbkdqEUjn-83">
          <mxGeometry relative="1" as="geometry">
            <mxPoint x="413.344827586207" y="940" as="targetPoint" />
          </mxGeometry>
        </mxCell>
        <mxCell id="tDk0SCn-6yNDbkdqEUjn-83" value="" style="shape=trapezoid;perimeter=trapezoidPerimeter;html=1;fixedSize=1;rotation=-180;whiteSpace=wrap;rounded=1;fillColor=#dae8fc;strokeColor=#6c8ebf;" vertex="1" parent="1">
          <mxGeometry x="153" y="840" width="521" height="60" as="geometry" />
        </mxCell>
        <mxCell id="tDk0SCn-6yNDbkdqEUjn-84" value="68位加法器" style="text;html=1;align=center;verticalAlign=middle;whiteSpace=wrap;rounded=1;" vertex="1" parent="1">
          <mxGeometry x="378" y="855" width="71" height="30" as="geometry" />
        </mxCell>
        <mxCell id="tDk0SCn-6yNDbkdqEUjn-86" value="output" style="text;html=1;align=center;verticalAlign=middle;whiteSpace=wrap;rounded=1;" vertex="1" parent="1">
          <mxGeometry x="384" y="940" width="60" height="30" as="geometry" />
        </mxCell>
        <mxCell id="tDk0SCn-6yNDbkdqEUjn-89" value="Carry" style="text;html=1;align=center;verticalAlign=middle;whiteSpace=wrap;rounded=0;rotation=-90;" vertex="1" parent="1">
          <mxGeometry x="85" y="750" width="60" height="30" as="geometry" />
        </mxCell>
      </root>
    </mxGraphModel>
  </diagram>
</mxfile>
